<?xml version="1.0" standalone="no"?>
<!DOCTYPE svg PUBLIC "-//W3C//DTD SVG 20010904//EN"
 "http://www.w3.org/TR/2001/REC-SVG-20010904/DTD/svg10.dtd">
<svg version="1.0" xmlns="http://www.w3.org/2000/svg"
 width="512.000000pt" height="512.000000pt" viewBox="0 0 512.000000 512.000000"
 preserveAspectRatio="xMidYMid meet">
<metadata>
Created by potrace 1.11, written by Peter Selinger 2001-2013
</metadata>
<g transform="translate(0.000000,512.000000) scale(0.100000,-0.100000)"
fill="#000000" stroke="none">
<path d="M830 5041 c-74 -23 -127 -67 -161 -133 -27 -53 -28 -58 -28 -295 l-1
-203 -320 0 -320 0 0 -2175 0 -2175 2560 0 2560 0 0 2175 0 2175 -319 0 -319
0 -4 228 c-3 213 -5 230 -26 269 -26 51 -63 87 -117 116 -38 21 -53 22 -356
24 -358 3 -371 1 -445 -73 -70 -70 -79 -109 -79 -353 l1 -211 -896 0 -896 0 0
220 c-1 217 -1 220 -28 274 -15 31 -44 69 -66 86 -72 57 -93 60 -419 59 -163
0 -307 -4 -321 -8z m471 -269 c47 -23 84 -68 99 -123 6 -19 10 -131 10 -249 0
-188 -3 -220 -19 -256 -41 -90 -95 -116 -241 -117 -140 0 -189 23 -236 113
-15 30 -18 65 -19 255 -1 236 3 272 41 323 46 60 99 78 233 76 69 -1 98 -6
132 -22z m2817 -1 c43 -22 84 -69 97 -111 11 -35 13 -436 2 -485 -11 -52 -49
-100 -99 -126 -33 -17 -60 -21 -142 -22 -122 -1 -164 12 -210 63 -54 60 -58
88 -54 346 l3 231 35 46 c51 68 99 84 241 81 65 -1 96 -7 127 -23z m615 -1396
c2 -5 3 -667 3 -1470 l-1 -1460 -2175 -1 -2176 -1 2 1471 c1 809 2 1471 3
1471 0 1 977 1 2171 1 1494 0 2171 -3 2173 -11z"/>
<path d="M1665 2810 l-1 -320 383 0 383 0 0 320 0 320 -383 0 -382 0 0 -320z"/>
<path d="M2690 3103 c0 -16 -1 -158 -1 -318 l-1 -290 384 -3 383 -2 0 320 0
320 -382 0 -383 0 0 -27z"/>
<path d="M3711 2810 l1 -320 384 0 384 0 0 320 0 320 -385 0 -385 0 1 -320z"/>
<path d="M644 2231 c-2 -2 -4 -147 -4 -321 l0 -316 383 1 382 0 3 320 2 320
-381 0 c-209 0 -383 -2 -385 -4z"/>
<path d="M1671 2230 c-4 -3 -7 -147 -6 -320 l0 -315 383 0 382 0 0 320 0 320
-376 0 c-207 0 -379 -2 -383 -5z"/>
<path d="M2693 2227 c-4 -7 -5 -78 -4 -457 l1 -176 380 0 c209 0 381 2 381 5
4 19 4 623 -1 629 -7 10 -751 9 -757 -1z"/>
<path d="M3714 2225 c-2 -5 -3 -149 -1 -320 l2 -310 380 0 380 0 3 320 2 320
-381 0 c-245 0 -383 -4 -385 -10z"/>
<path d="M640 1020 l0 -320 385 0 385 0 0 320 -1 320 -385 0 -384 0 0 -320z"/>
<path d="M1665 1023 l0 -318 383 -3 382 -2 0 320 0 320 -383 0 -383 0 1 -317z"/>
<path d="M2689 1204 c0 -74 0 -154 0 -179 0 -25 0 -108 0 -185 l1 -140 383 2
382 3 0 315 0 315 -382 2 -383 2 -1 -135z"/>
<path d="M3711 1020 l-1 -320 385 0 385 0 0 320 0 320 -385 0 -384 -1 0 -319z"/>
</g>
</svg>
